/* XPM */
static char * nito64_xpm[] = {
"64 64 60 1",
" 	c None",
".	c #2673E3",
"+	c #216CDF",
"@	c #2B7AE7",
"#	c #2B7AE8",
"$	c #2775E4",
"%	c #3081EC",
"&	c #3082EC",
"*	c #2D7EE9",
"=	c #3588F0",
"-	c #3386EF",
";	c #398FF5",
">	c #3A8FF5",
",	c #3E95F8",
"'	c #3E96F9",
")	c #3E96FA",
"!	c #3F97FA",
"~	c #3D91ED",
"{	c #419AFC",
"]	c #3F95F3",
"^	c #4099FA",
"/	c #4098F9",
"(	c #3D91EC",
"_	c #3F94F3",
":	c #3D90EC",
"<	c #4199FA",
"[	c #3E93F1",
"}	c #3F95F4",
"|	c #419AFB",
"1	c #3D8FEB",
"2	c #4199FB",
"3	c #4097F8",
"4	c #3E92EF",
"5	c #4097F7",
"6	c #939FC6",
"7	c #4B9AF8",
"8	c #C6B1A3",
"9	c #A8A5B5",
"0	c #C9B3A3",
"a	c #ECBA06",
"b	c #709DE5",
"c	c #F4C000",
"d	c #D1AF72",
"e	c #499AF9",
"f	c #F2BE00",
"g	c #A1A3BB",
"h	c #E8B817",
"i	c #6B9CE8",
"j	c #CBAC79",
"k	c #449AFA",
"l	c #F0BD00",
"m	c #9BA0BF",
"n	c #E4B52F",
"o	c #669BEA",
"p	c #F3C000",
"q	c #C5A97E",
"r	c #429AFB",
"s	c #EFBC00",
"t	c #949FC3",
"u	c #E3B63E",
"                                                                ",
"                                                                ",
"                                                                ",
"    ...............                          ++++++++++++       ",
"    @###############                         $$$$$$$$$$$$       ",
"     %%%%%%%%%%%%%%%&                        ************       ",
"      ===============                        ------------       ",
"      ;>>>>>>>>>>>>>>>                       ;;;;;;;;;;;;       ",
"       ,'''''''''''''')                      !!!!!!!!!!!!       ",
"       ~{{{{{{{{{{{{{{{{                     {{{{{{{{{{{{       ",
"       ]]{{{{{{{{{{{{{{{                     {{{{{{{{{{{{       ",
"       {~^{{{{{{{{{{{{{{{                    {{{{{{{{{{{{       ",
"       {/({{{{{{{{{{{{{{{{                   {{{{{{{{{{{{       ",
"       {{_]{{{{{{{{{{{{{{{                   {{{{{{{{{{{{       ",
"       {{{:<{{{{{{{{{{{{{{{                  {{{{{{{{{{{{       ",
"       {{{/~{{{{{{{{{{{{{{{{                 {{{{{{{{{{{{       ",
"       {{{{[}{{{{{{{{{{{{{{{{                {{{{{{{{{{{{       ",
"       {{{{|12{{{{{{{{{{{{{{{                {{{{{{{{{{{{       ",
"       {{{{{3~{{{{{{{{{{{{{{{{               {{{{{{{{{{{{       ",
"       {{{{{{45{{{{{{{{{{{{{{{{              {{{{{{{{{{{{       ",
"       {{{{{{267{{{{{{{{{{{{{{{              {{{{{{{{{{{{       ",
"       {{{{{{{89{{{{{{{{{{{{{{{{             {{{{{{{{{{{{       ",
"       {{{{{{{0ab{{{{{{{{{{{{{{{{            {{{{{{{{{{{{       ",
"       {{{{{{{0cde{{{{{{{{{{{{{{{{           {{{{{{{{{{{{       ",
"       {{{{{{{0cfg{{{{{{{{{{{{{{{{           {{{{{{{{{{{{       ",
"       {{{{{{{0cchi{{{{{{{{{{{{{{{{          {{{{{{{{{{{{       ",
"       {{{{{{{0cccjk{{{{{{{{{{{{{{{{         {{{{{{{{{{{{       ",
"       {{{{{{{0ccclm{{{{{{{{{{{{{{{{         {{{{{{{{{{{{       ",
"       {{{{{{{0ccccno{{{{{{{{{{{{{{{{        {{{{{{{{{{{{       ",
"       {{{{{{{0ccccpqr{{{{{{{{{{{{{{{{       {{{{{{{{{{{{       ",
"       {{{{{{{0cccccst{{{{{{{{{{{{{{{{{      {{{{{{{{{{{{       ",
"       {{{{{{{0ccccccu{{{{{{{{{{{{{{{{{      {{{{{{{{{{{{       ",
"       {{{{{{{0ccccccc {{{{{{{{{{{{{{{{{     {{{{{{{{{{{{       ",
"       {{{{{{{0ccccccc {{{{{{{{{{{{{{{{{{    {{{{{{{{{{{{       ",
"       {{{{{{{0ccccccc  {{{{{{{{{{{{{{{{{    {{{{{{{{{{{{       ",
"       {{{{{{{0ccccccc   {{{{{{{{{{{{{{{{{   {{{{{{{{{{{{       ",
"       {{{{{{{0ccccccc   {{{{{{{{{{{{{{{{{{  {{{{{{{{{{{{       ",
"       {{{{{{{0ccccccc    {{{{{{{{{{{{{{{{{{  {{{{{{{{{{{       ",
"       {{{{{{{0ccccccc     {{{{{{{{{{{{{{{{{   {{{{{{{{{{       ",
"       {{{{{{{0ccccccc     {{{{{{{{{{{{{{{{{{   {{{{{{{{{       ",
"       {{{{{{{0ccccccc      {{{{{{{{{{{{{{{{{{  {{{{{{{{{       ",
"       {{{{{{{0ccccccc       {{{{{{{{{{{{{{{{{   {{{{{{{{       ",
"       {{{{{{{0ccccccc       {{{{{{{{{{{{{{{{{{   {{{{{{{       ",
"       {{{{{{{0ccccccc        {{{{{{{{{{{{{{{{{{  {{{{{{{       ",
"       {{{{{{{0ccccccc         {{{{{{{{{{{{{{{{{{  {{{{{{       ",
"       {{{{{{{0ccccccc         {{{{{{{{{{{{{{{{{{   {{{{{       ",
"       {{{{{{{0ccccccc          {{{{{{{{{{{{{{{{{{   {{{{       ",
"       {{{{{{{0ccccccc           {{{{{{{{{{{{{{{{{{  {{{{       ",
"       {{{{{{{0ccccccc           {{{{{{{{{{{{{{{{{{   {{{       ",
"       {{{{{{{0ccccccc            {{{{{{{{{{{{{{{{{{   {{       ",
"       {{{{{{{0ccccccc             {{{{{{{{{{{{{{{{{{   {       ",
"       {{{{{{{0ccccccc             {{{{{{{{{{{{{{{{{{{  {       ",
"       {{{{{{{0ccccccc              {{{{{{{{{{{{{{{{{{          ",
"       {{{{{{{0ccccccc               {{{{{{{{{{{{{{{{{{         ",
"       {{{{{{{0ccccccc               {{{{{{{{{{{{{{{{{{{        ",
"       {{{{{{{0ccccccc                {{{{{{{{{{{{{{{{{{        ",
"       {{{{{{{0ccccccc                 {{{{{{{{{{{{{{{{{{       ",
"       {{{{{{{0ccccccc                 {{{{{{{{{{{{{{{{{{{      ",
"       {{{{{{{0ccccccc                  {{{{{{{{{{{{{{{{{{{     ",
"       {{{{{{{0ccccccc                  {{{{{{{{{{{{{{{{{{{     ",
"       {{{{{{{0ccccccc                   {{{{{{{{{{{{{{{{{{{    ",
"                                                                ",
"                                                                ",
"                                                                "};
