/* XPM */
static char * nito32_xpm[] = {
"32 32 561 2",
"  	c None",
". 	c #182A4A",
"+ 	c #152641",
"@ 	c #0E1E39",
"# 	c #0C1A32",
"$ 	c #09172D",
"% 	c #0B1628",
"& 	c #1E3966",
"* 	c #19325A",
"= 	c #142B50",
"- 	c #102547",
"; 	c #0D203E",
"> 	c #091B37",
", 	c #05162F",
"' 	c #021329",
") 	c #011024",
"! 	c #010F23",
"~ 	c #020F22",
"{ 	c #0B1424",
"] 	c #224070",
"^ 	c #1D3C6B",
"/ 	c #1B3764",
"( 	c #173058",
"_ 	c #4F576B",
": 	c #95999F",
"< 	c #B4B6B8",
"[ 	c #BFC1C2",
"} 	c #BFC1C1",
"| 	c #B3B5B5",
"1 	c #929496",
"2 	c #484C52",
"3 	c #010D23",
"4 	c #000D21",
"5 	c #020D20",
"6 	c #101725",
"7 	c #224376",
"8 	c #66728C",
"9 	c #1E3965",
"0 	c #7F8694",
"a 	c #E0E2E3",
"b 	c #FDFEFC",
"c 	c #FFFFFD",
"d 	c #F7FBF8",
"e 	c #C9D0D2",
"f 	c #757B82",
"g 	c #010D20",
"h 	c #060F21",
"i 	c #224378",
"j 	c #1F3E71",
"k 	c #A5ABB5",
"l 	c #B6B9BE",
"m 	c #576075",
"n 	c #EEEFEE",
"o 	c #E8E9E9",
"p 	c #BFC1C3",
"q 	c #9EA0A3",
"r 	c #86898D",
"s 	c #86898C",
"t 	c #A0A2A4",
"u 	c #C4C6C6",
"v 	c #EAEEEC",
"w 	c #EBF2F3",
"x 	c #D8E3EA",
"y 	c #A0AEBB",
"z 	c #303945",
"A 	c #000D20",
"B 	c #214275",
"C 	c #1F3E70",
"D 	c #7A8397",
"E 	c #F4F4F4",
"F 	c #8C9199",
"G 	c #39445B",
"H 	c #112646",
"I 	c #0E2241",
"J 	c #0B1D39",
"K 	c #071830",
"L 	c #04132A",
"M 	c #021025",
"N 	c #020F21",
"O 	c #131B28",
"P 	c #868D90",
"Q 	c #C4D0D7",
"R 	c #BDCFDF",
"S 	c #99AEC6",
"T 	c #3B485A",
"U 	c #020E20",
"V 	c #234173",
"W 	c #1E3D6D",
"X 	c #747C92",
"Y 	c #F7F8F6",
"Z 	c #F6F6F4",
"` 	c #636974",
" .	c #0F2241",
"..	c #0C1F3C",
"+.	c #0A1B34",
"@.	c #05162E",
"#.	c #041229",
"$.	c #021023",
"%.	c #020E21",
"&.	c #212934",
"*.	c #8E9DAB",
"=.	c #A0B7D1",
"-.	c #809BBE",
";.	c #2D3C53",
">.	c #041022",
",.	c #26406D",
"'.	c #1D3A6A",
").	c #465576",
"!.	c #F0F1F0",
"~.	c #E6E7E7",
"{.	c #363E4F",
"].	c #0B1C37",
"^.	c #081830",
"/.	c #04152B",
"(.	c #021125",
"_.	c #021022",
":.	c #000C20",
"<.	c #010B1F",
"[.	c #697A90",
"}.	c #7F9FC6",
"|.	c #6384B1",
"1.	c #132036",
"2.	c #101826",
"3.	c #1C3765",
"4.	c #1A3562",
"5.	c #C1CBD1",
"6.	c #FAFEFC",
"7.	c #CCCFD1",
"8.	c #D4D6D8",
"9.	c #CDCFCF",
"0.	c #091A2F",
"a.	c #05162C",
"b.	c #041328",
"c.	c #011124",
"d.	c #A9ABAB",
"e.	c #BFC0BF",
"f.	c #C0C1C0",
"g.	c #939699",
"h.	c #010C21",
"i.	c #5B7697",
"j.	c #6389BC",
"k.	c #43618E",
"l.	c #030F21",
"m.	c #223860",
"n.	c #1A325E",
"o.	c #586B82",
"p.	c #DEF4F9",
"q.	c #DDEDEE",
"r.	c #3D4960",
"s.	c #404A5E",
"t.	c #EAECEB",
"u.	c #A9ABAD",
"v.	c #031225",
"w.	c #010F21",
"x.	c #E1E2E1",
"y.	c #FFFFFC",
"z.	c #D1D3D4",
"A.	c #333F57",
"B.	c #031126",
"C.	c #101D30",
"D.	c #587CAD",
"E.	c #5078B5",
"F.	c #1C304F",
"G.	c #111926",
"H.	c #1B325A",
"I.	c #172F57",
"J.	c #93B4C9",
"K.	c #C9EEFB",
"L.	c #8BA3AE",
"M.	c #102747",
"N.	c #112644",
"O.	c #6E737C",
"P.	c #F8F9F7",
"Q.	c #FBFCFA",
"R.	c #7F8284",
"S.	c #010E21",
"T.	c #E1E3E1",
"U.	c #636C7F",
"V.	c #183359",
"W.	c #051429",
"X.	c #334F74",
"Y.	c #4C77B5",
"Z.	c #34558A",
"`.	c #010C1E",
" +	c #051022",
".+	c #162D53",
"++	c #182F52",
"@+	c #9ED4F3",
"#+	c #A9DFF7",
"$+	c #283C54",
"%+	c #0D2342",
"&+	c #122745",
"*+	c #152A4C",
"=+	c #989EA1",
"-+	c #F6FEFD",
";+	c #E9F0F0",
">+	c #4D5358",
",+	c #000D1F",
"'+	c #010E20",
")+	c #E2E3E1",
"!+	c #647087",
"~+	c #1D3C65",
"{+	c #06162B",
"]+	c #07162A",
"^+	c #446EAB",
"/+	c #3B65A8",
"(+	c #020F23",
"_+	c #14294B",
":+	c #385B7C",
"<+	c #8BD0FD",
"[+	c #7AB1D4",
"}+	c #0D2341",
"|+	c #0B1E3D",
"1+	c #51626F",
"2+	c #7594A0",
"3+	c #081932",
"4+	c #B6C5C7",
"5+	c #E8F9FC",
"6+	c #E7F9FC",
"7+	c #E6F9FB",
"8+	c #CAD9DC",
"9+	c #1A232D",
"0+	c #000E1F",
"a+	c #E2E3E2",
"b+	c #65738D",
"c+	c #234471",
"d+	c #08182E",
"e+	c #305690",
"f+	c #3767B0",
"g+	c #142C51",
"h+	c #0B1524",
"i+	c #1A2A47",
"j+	c #122444",
"k+	c #4374A1",
"l+	c #75C2FD",
"m+	c #5389B3",
"n+	c #0B1E3B",
"o+	c #091B36",
"p+	c #4E6472",
"q+	c #B6EDFB",
"r+	c #7194A0",
"s+	c #27303E",
"t+	c #C3DDE4",
"u+	c #D4F3FB",
"v+	c #D2F3FB",
"w+	c #D3F3FA",
"x+	c #9EB6BC",
"y+	c #010E1F",
"z+	c #E1E3E2",
"A+	c #F9FCFA",
"B+	c #657694",
"C+	c #2A4D7D",
"D+	c #091A30",
"E+	c #214478",
"F+	c #3063B1",
"G+	c #1A3B6E",
"H+	c #0E1725",
"I+	c #16263F",
"J+	c #0F213E",
"K+	c #3C78AF",
"L+	c #5FB3FD",
"M+	c #386B98",
"N+	c #091A34",
"O+	c #071730",
"P+	c #48616F",
"Q+	c #A7E9FF",
"R+	c #9BD5E8",
"S+	c #031227",
"T+	c #4C5F67",
"U+	c #B7E7F3",
"V+	c #BAEEFE",
"W+	c #B9EEFD",
"X+	c #BBEEFC",
"Y+	c #6C8B95",
"Z+	c #D9DEDD",
"`+	c #EDF3F4",
" @	c #63779B",
".@	c #2F5388",
"+@	c #0C1C33",
"@@	c #153768",
"#@	c #275EB3",
"$@	c #183F7D",
"%@	c #061120",
"&@	c #11223B",
"*@	c #0D1E3A",
"=@	c #3372B8",
"-@	c #49A2FD",
";@	c #27598F",
">@	c #06172F",
",@	c #04142C",
"'@	c #425D6D",
")@	c #96E1FF",
"!@	c #8BCDE9",
"~@	c #0B1E39",
"{@	c #031228",
"]@	c #5F8591",
"^@	c #9FE7FD",
"/@	c #9EE8FF",
"(@	c #9DE8FD",
"_@	c #99E1F4",
":@	c #3A5B65",
"<@	c #A7AEB1",
"[@	c #DFE8ED",
"}@	c #6077A2",
"|@	c #355991",
"1@	c #0D1E36",
"2@	c #010C1F",
"3@	c #0A2F66",
"4@	c #1A56B7",
"5@	c #103D83",
"6@	c #020D1E",
"7@	c #132238",
"8@	c #0A1B36",
"9@	c #2460AC",
"0@	c #368FFC",
"a@	c #1D5293",
"b@	c #03142B",
"c@	c #021127",
"d@	c #38586B",
"e@	c #80D8FE",
"f@	c #78C5E9",
"g@	c #173053",
"h@	c #0F233F",
"i@	c #5FA7BC",
"j@	c #7AE1FF",
"k@	c #79E1FE",
"l@	c #77E1FD",
"m@	c #6BCAE3",
"n@	c #1E323D",
"o@	c #B4C0CA",
"p@	c #5B78A6",
"q@	c #395F98",
"r@	c #0F2038",
"s@	c #010D1E",
"t@	c #062C6D",
"u@	c #0D4CBD",
"v@	c #073383",
"w@	c #0E1723",
"x@	c #162135",
"y@	c #164B97",
"z@	c #247EFD",
"A@	c #1753AB",
"B@	c #011022",
"C@	c #2E5368",
"D@	c #68CFFF",
"E@	c #65BEEA",
"F@	c #224068",
"G@	c #183254",
"H@	c #071928",
"I@	c #4DBCDC",
"J@	c #55D8FF",
"K@	c #54D9FE",
"L@	c #54DAFD",
"M@	c #42A8C2",
"N@	c #434A55",
"O@	c #4F6FA2",
"P@	c #3B649F",
"Q@	c #10213A",
"R@	c #010D1F",
"S@	c #042D84",
"T@	c #0541C2",
"U@	c #032878",
"V@	c #121A28",
"W@	c #092E66",
"X@	c #156EFA",
"Y@	c #0F59CF",
"Z@	c #224E67",
"`@	c #4DC7FE",
" #	c #4EB8EC",
".#	c #2B4D7B",
"+#	c #213F67",
"@#	c #104151",
"##	c #30C3EF",
"$#	c #30CEFF",
"%#	c #30CFFE",
"&#	c #31CEFB",
"*#	c #1D7B98",
"=#	c #253F64",
"-#	c #3D67A2",
";#	c #10213B",
">#	c #04309E",
",#	c #0338BF",
"'#	c #021A53",
")#	c #151D2A",
"!#	c #021227",
"~#	c #021129",
"{#	c #0C5CE7",
"]#	c #0A5EF0",
"^#	c #03183E",
"/#	c #194965",
"(#	c #31BDFE",
"_#	c #38B1EE",
":#	c #31578B",
"<#	c #284A77",
"[#	c #0D5E7C",
"}#	c #16BEFA",
"|#	c #14BFFF",
"1#	c #12BEFE",
"2#	c #16B7F4",
"3#	c #084A68",
"4#	c #325383",
"5#	c #10223C",
"6#	c #011134",
"7#	c #0533B6",
"8#	c #0331AD",
"9#	c #000E23",
"0#	c #0C1728",
"a#	c #0740B2",
"b#	c #0754EF",
"c#	c #0536A1",
"d#	c #114364",
"e#	c #18AEFC",
"f#	c #24A7EF",
"g#	c #366097",
"h#	c #2D5284",
"i#	c #030E1F",
"j#	c #020E1F",
"k#	c #0977A8",
"l#	c #07AFFD",
"m#	c #05ABFC",
"n#	c #04A7FB",
"o#	c #0995E3",
"p#	c #0C2743",
"q#	c #0A182C",
"r#	c #04207B",
"s#	c #0331B7",
"t#	c #022586",
"u#	c #091423",
"v#	c #021B50",
"w#	c #0649E0",
"x#	c #0444DC",
"y#	c #031646",
"z#	c #0A3C61",
"A#	c #079BFA",
"B#	c #1898ED",
"C#	c #3964A1",
"D#	c #30588E",
"E#	c #057BCA",
"F#	c #0292F9",
"G#	c #018CF7",
"H#	c #0187F4",
"I#	c #0463BE",
"J#	c #02123F",
"K#	c #032BAE",
"L#	c #032DAE",
"M#	c #01123D",
"N#	c #141D29",
"O#	c #071223",
"P#	c #04309C",
"Q#	c #0341DC",
"R#	c #0435B5",
"S#	c #062F53",
"T#	c #0575D0",
"U#	c #1274C9",
"V#	c #33598E",
"W#	c #2C4E7E",
"X#	c #021B38",
"Y#	c #036CDE",
"Z#	c #016EF1",
"`#	c #0266EC",
" $	c #025BE7",
".$	c #03318F",
"+$	c #03269B",
"@$	c #022AB1",
"#$	c #021E7A",
"$$	c #000E20",
"%$	c #181F2A",
"&$	c #000C1F",
"*$	c #010D29",
"=$	c #0434B4",
"-$	c #0339CC",
";$	c #042A9C",
">$	c #030F26",
",$	c #020D1F",
"'$	c #02275E",
")$	c #0353DF",
"!$	c #024CE0",
"~$	c #0142D8",
"{$	c #0135CA",
"]$	c #032BB4",
"^$	c #032495",
"/$	c #010F25",
"($	c #0B1423",
"_$	c #0330B3",
":$	c #0332C0",
"<$	c #03289D",
"[$	c #021139",
"}$	c #030E21",
"|$	c #02277D",
"1$	c #023CD2",
"2$	c #0134CA",
"3$	c #022DBF",
"4$	c #0326A0",
"5$	c #011035",
"6$	c #0C1424",
"7$	c #01113D",
"8$	c #032AA2",
"9$	c #022CB2",
"0$	c #0225A1",
"a$	c #021767",
"b$	c #020E26",
"c$	c #020C1F",
"d$	c #03268F",
"e$	c #0130C4",
"f$	c #02269F",
"g$	c #011033",
"h$	c #031022",
"i$	c #0A1322",
"j$	c #000D2A",
"k$	c #021E80",
"l$	c #0124A3",
"m$	c #0222A0",
"n$	c #041F8E",
"o$	c #041970",
"p$	c #031558",
"q$	c #02134A",
"r$	c #021249",
"s$	c #021250",
"t$	c #01145C",
"u$	c #01156A",
"v$	c #02145B",
"w$	c #020F2A",
"x$	c #0328A0",
"y$	c #022290",
"z$	c #000D22",
"A$	c #040D1F",
"B$	c #011146",
"C$	c #021C7D",
"D$	c #031E90",
"E$	c #021D8E",
"F$	c #031B86",
"G$	c #031981",
"H$	c #02187E",
"I$	c #02187C",
"J$	c #021979",
"K$	c #021974",
"L$	c #021561",
"M$	c #021036",
"N$	c #021033",
"O$	c #032389",
"P$	c #081325",
"Q$	c #121926",
"R$	c #010E27",
"S$	c #01114A",
"T$	c #011459",
"U$	c #02135A",
"V$	c #021252",
"W$	c #011040",
"X$	c #020E25",
"Y$	c #010D21",
"Z$	c #0B193B",
"`$	c #131928",
" %	c #061122",
".%	c #061223",
"+%	c #0D1526",
"@%	c #151C29",
"#%	c #111826",
"$%	c #071121",
"%%	c #091222",
"&%	c #0F1626",
"*%	c #0F1625",
"                                                                ",
"                          . + @ # $ %                           ",
"                    & * = - ; > , ' ) ! ~ {                     ",
"                ] ^ / ( _ : < [ } | 1 2 3 4 5 6                 ",
"              7 8 9 0 a b c c c c c c d e f g g h               ",
"            i j k l m n o p q r s t u v w x y z g A             ",
"          B C D E b F G H I J K L M N O P Q R S T g U           ",
"        V W X Y c c Z `  ...+.@.#.$.%.g g &.*.=.-.;.A >.        ",
"      ,.'.).!.c c c c ~.{.].^./.(._.U A :.<.<.[.}.|.1.g 2.      ",
"      3.4.5.6.7.8.c c c 9.0.a.b.c.N g d.e.f.g.h.i.j.k.A l.      ",
"    m.n.o.p.q.r.s.t.c c c u.b.v._.w.A x.y.z.A.B.C.D.E.F.5 G.    ",
"    H.I.J.K.L.M.N.O.P.c c Q.R._.N A S.T.c U.V.W.g X.Y.Z.`. +    ",
"    .+++@+#+$+%+&+*+=+-+-+-+;+>+,+,+'+)+c !+~+{+g ]+^+/+(+A     ",
"    _+:+<+[+}+|+1+2+3+4+5+6+7+8+9+0+A a+y.b+c+d+5 5 e+f+g+,+h+  ",
"  i+j+k+l+m+n+o+p+q+r+s+t+u+v+w+x+y+A z+A+B+C+D+5 5 E+F+G+A H+  ",
"  I+J+K+L+M+N+O+P+Q+R+S+T+U+V+W+X+Y+g Z+`+ @.@+@5 g @@#@$@A %@  ",
"  &@*@=@-@;@>@,@'@)@!@~@{@]@^@/@(@_@:@<@[@}@|@1@2@A 3@4@5@A 6@  ",
"  7@8@9@0@a@b@c@d@e@f@g@h@6@i@j@k@l@m@n@o@p@q@r@s@A t@u@v@A w@  ",
"  x@K y@z@A@c@B@C@D@E@F@G@6@H@I@J@K@L@M@N@O@P@Q@R@A S@T@U@A V@  ",
"    ,@W@X@Y@B@U Z@`@ #.#+#6@6@@###$#%#&#*#=#-#;#,+A >#,#'#A )#  ",
"    !#~#{#]#^#6@/#(#_#:#<#6@6@s@[#}#|#1#2#3#4#5#A 6#7#8#9#4     ",
"    0#(+a#b#c#6@d#e#f#g#h#6@i#j#6@k#l#m#n#o#p#q#g r#s#t#A u#    ",
"    O 4 v#w#x#y#z#A#B#C#D#6@j#i#i#6@E#F#G#H#I#U J#K#L#M#A N#    ",
"      O#A P#Q#R#S#T#U#V#W#6@y+N i#6@X#Y#Z#`# $.$+$@$#$$$l.      ",
"      %$&$*$=$-$;$>$,+A R@,$$$N %.6@`.'$)$!$~${$]$^$/$A 2.      ",
"        ($R@M#_$:$<$[$g 5 5 g }$N 5 ,$`.|$1$2$3$4$5$4 h+        ",
"          6$<.7$8$9$0$a$b$U U N N U g g c$d$e$f$g$4 h$          ",
"            i$<.j$k$l$m$n$o$p$q$r$s$t$u$v$w$x$y$z$S.            ",
"              A$<.&$B$C$D$E$F$G$H$I$J$K$L$M$N$O$P$              ",
"                Q$,$A A R$S$T$v$U$V$W$X$,$g Y$Z$                ",
"                    `$ %,+A A A g 2@A g .%+%                    ",
"                          @%#%$%%%&%*%                          "};
