/* XPM */
static char * nito16_xpm[] = {
"16 16 17 1",
" 	c None",
".	c #3183ED",
"+	c #3385EE",
"@	c #4098FA",
"#	c #4099FB",
"$	c #4199FC",
"%	c #4097F7",
"&	c #419AFC",
"*	c #419AFB",
"=	c #4097F8",
"-	c #8FA4D9",
";	c #539BF6",
">	c #A3A9CE",
",	c #BFAFAA",
"'	c #F3BF00",
")	c #83A1E1",
"!	c #F4C000",
"                ",
" .+++      ...  ",
"  @###     $$$  ",
"  %&&&&    &&&  ",
"  *=&&&    &&&  ",
"  &-;&&&   &&&  ",
"  &>,&&&&  &&&  ",
"  &>')&&&& &&&  ",
"  &>! &&&& &&&  ",
"  &>!  &&&& &&  ",
"  &>!  &&&&&&&  ",
"  &>!   &&&& &  ",
"  &>!    &&&&   ",
"  &>!    &&&&&  ",
"  &>!     &&&&& ",
"                "};
