/* XPM */
static char * nito16_xpm[] = {
"16 16 182 2",
"  	c None",
". 	c #14294A",
"+ 	c #11213C",
"@ 	c #0C1A30",
"# 	c #071426",
"$ 	c #081224",
"% 	c #3C4F73",
"& 	c #8F949E",
"* 	c #C6C7C9",
"= 	c #DCDDDD",
"- 	c #DCDDDC",
"; 	c #C4C5C4",
"> 	c #7E8387",
", 	c #040F21",
"' 	c #0C1424",
") 	c #254477",
"! 	c #646F8B",
"~ 	c #CFD2D5",
"{ 	c #A7AAAF",
"] 	c #A6A9AC",
"^ 	c #7C7F83",
"/ 	c #7D7F81",
"( 	c #AAACAC",
"_ 	c #CFD6D9",
": 	c #A7B6C3",
"< 	c #323D4C",
"[ 	c #5F6B86",
"} 	c #F2F3F2",
"| 	c #FFFFFD",
"1 	c #B7B9BB",
"2 	c #0D1F3D",
"3 	c #071830",
"4 	c #031125",
"5 	c #010E20",
"6 	c #000D20",
"7 	c #798795",
"8 	c #7F9ABB",
"9 	c #202F45",
"0 	c #1B3562",
"a 	c #CFDADE",
"b 	c #BEC3C5",
"c 	c #929497",
"d 	c #041429",
"e 	c #021022",
"f 	c #686A6C",
"g 	c #CCCDCB",
"h 	c #717479",
"i 	c #4D6686",
"j 	c #4B6D9E",
"k 	c #041021",
"l 	c #53708A",
"m 	c #B9DCEA",
"n 	c #142948",
"o 	c #81858C",
"p 	c #FAFCFA",
"q 	c #F7F9F7",
"r 	c #6A6E71",
"s 	c #848586",
"t 	c #E2E4E4",
"u 	c #153053",
"v 	c #020E21",
"w 	c #456CA5",
"x 	c #1B3256",
"y 	c #071223",
"z 	c #182B4B",
"A 	c #6195BD",
"B 	c #6798B9",
"C 	c #0B1E3B",
"D 	c #6E8E9A",
"E 	c #9DA8AB",
"F 	c #E5F8FC",
"G 	c #D4E7EA",
"H 	c #374047",
"I 	c #E1E3E4",
"J 	c #203F68",
"K 	c #020D20",
"L 	c #284B7F",
"M 	c #254A81",
"N 	c #041121",
"O 	c #11233F",
"P 	c #498ECC",
"Q 	c #386A98",
"R 	c #07172F",
"S 	c #97D3E7",
"T 	c #4E707E",
"U 	c #9CC1CC",
"V 	c #BAEEFD",
"W 	c #9CCAD8",
"X 	c #7D8182",
"Y 	c #D3DAE0",
"Z 	c #2A4B7C",
"` 	c #010D1F",
" .	c #153668",
"..	c #1D4A91",
"+.	c #0D1D37",
"@.	c #2C73CB",
"#.	c #1D5293",
"$.	c #021227",
"%.	c #75C4E7",
"&.	c #42718E",
"*.	c #1E3241",
"=.	c #75CBE5",
"-.	c #7BE1FE",
";.	c #55A4B9",
">.	c #9BA8B9",
",.	c #32568A",
"'.	c #010C1F",
").	c #062B6D",
"!.	c #0A3D99",
"~.	c #081323",
"{.	c #09182E",
"].	c #1151B5",
"^.	c #0D4EB5",
"/.	c #010F20",
"(.	c #48B5E7",
"_.	c #3674A1",
":.	c #102440",
"<.	c #194F60",
"[.	c #37C7F3",
"}.	c #38CFFC",
"|.	c #257697",
"1.	c #34588B",
"2.	c #03298A",
"3.	c #022A8C",
"4.	c #061223",
"5.	c #042970",
"6.	c #074FDE",
"7.	c #020F25",
"8.	c #1CA1E5",
"9.	c #3277B2",
"0.	c #173051",
"a.	c #020E1E",
"b.	c #076185",
"c.	c #09AFFA",
"d.	c #09A4F2",
"e.	c #154572",
"f.	c #010E25",
"g.	c #032DAA",
"h.	c #011853",
"i.	c #0338B8",
"j.	c #032D9D",
"k.	c #0572C2",
"l.	c #2D64A3",
"m.	c #172E4F",
"n.	c #020E20",
"o.	c #020D1E",
"p.	c #0359A6",
"q.	c #0275F1",
"r.	c #0359D2",
"s.	c #03228A",
"t.	c #022491",
"u.	c #01113B",
"v.	c #0331B4",
"w.	c #032388",
"x.	c #010E23",
"y.	c #020D1F",
"z.	c #033AB0",
"A.	c #0138CD",
"B.	c #0227A4",
"C.	c #001034",
"D.	c #0A1222",
"E.	c #010F37",
"F.	c #022291",
"G.	c #022094",
"H.	c #031764",
"I.	c #021245",
"J.	c #021142",
"K.	c #011250",
"L.	c #02124B",
"M.	c #0229A9",
"N.	c #011035",
"O.	c #030F22",
"P.	c #01134D",
"Q.	c #02176C",
"R.	c #02166D",
"S.	c #021569",
"T.	c #01145C",
"U.	c #02103F",
"V.	c #03133C",
"W.	c #051122",
"X.	c #061122",
"Y.	c #081223",
"            . + @ # $           ",
"        % & * = - ; > , '       ",
"    ) ! ~ { ] ^ / ( _ : < ,     ",
"    [ } | 1 2 3 4 5 6 7 8 9     ",
"  0 a b } | c d e f g h i j k   ",
"  l m n o p q r 5 s t u v w x y ",
"z A B C D E F G H s I J K L M N ",
"O P Q R S T U V W X Y Z `  ...k ",
"+.@.#.$.%.&.*.=.-.;.>.,.'.).!.~.",
"{.].^./.(._.:.<.[.}.|.1.` 2.3.4.",
"  5.6.7.8.9.0.a.b.c.d.e.f.g.h.  ",
"  v i.j.k.l.m.n.o.p.q.r.s.t.5   ",
"    u.v.w.x.K n.n.y.z.A.B.C.    ",
"    D.E.F.G.H.I.J.K.L.M.N.O.    ",
"        K P.Q.R.S.T.U.V.        ",
"            W.X.Y.X.            "};
