/* XPM */
static char * nito32_xpm[] = {
"32 32 35 1",
" 	c None",
".	c #2571E2",
"+	c #206ADD",
"@	c #2D7DE9",
"#	c #2E7EEA",
"$	c #2A79E7",
"%	c #378BF3",
"&	c #378CF3",
"*	c #388DF3",
"=	c #368BF2",
"-	c #4098FB",
";	c #4099FB",
">	c #3F96F6",
",	c #419AFC",
"'	c #3F96F5",
")	c #4099FA",
"!	c #3F94F2",
"~	c #4098F9",
"{	c #3F95F4",
"]	c #419AFB",
"^	c #8BA1D6",
"/	c #E4BA63",
"(	c #82A0DD",
"_	c #E7BC63",
":	c #DFB666",
"<	c #4C9AF8",
"[	c #F4C000",
"}	c #B3A9B0",
"|	c #E6BC63",
"1	c #F1BD00",
"2	c #789EE1",
"3	c #DAB574",
"4	c #E7BC61",
"5	c #E7BC60",
"6	c #E8BC5E",
"                                ",
"  .......             ++++++    ",
"  @#######            $$$$$$    ",
"   %&&&&&&*           ======    ",
"    -------;          ;;;;;;    ",
"    >,,,,,,,          ,,,,,,    ",
"    '),,,,,,,         ,,,,,,    ",
"    ,!,,,,,,,,        ,,,,,,    ",
"    ,~',,,,,,,        ,,,,,,    ",
"    ,,{],,,,,,,       ,,,,,,    ",
"    ,,,^,,,,,,,,      ,,,,,,    ",
"    ,,,/(,,,,,,,,     ,,,,,,    ",
"    ,,,_:<,,,,,,,     ,,,,,,    ",
"    ,,,_[},,,,,,,,    ,,,,,,    ",
"    ,,,|[12,,,,,,,,   ,,,,,,    ",
"    ,,,|[[3,,,,,,,,   ,,,,,,    ",
"    ,,,|[[[ ,,,,,,,,  ,,,,,,    ",
"    ,,,|[[[ ,,,,,,,,, ,,,,,,    ",
"    ,,,|[[[  ,,,,,,,,, ,,,,,    ",
"    ,,,|[[[   ,,,,,,,,  ,,,,    ",
"    ,,,|[[[   ,,,,,,,,, ,,,,    ",
"    ,,,|[[[    ,,,,,,,,, ,,,    ",
"    ,,,|[[[    ,,,,,,,,,  ,,    ",
"    ,,,|[[[     ,,,,,,,,, ,,    ",
"    ,,,|[[[      ,,,,,,,,, ,    ",
"    ,,,|[[[      ,,,,,,,,,,     ",
"    ,,,_[[[       ,,,,,,,,,     ",
"    ,,,4[[[        ,,,,,,,,,    ",
"    ,,,5[[[        ,,,,,,,,,,   ",
"    ,,,6[[[         ,,,,,,,,,   ",
"    ,,, [[           ,,,,,,,,,  ",
"                                "};
