<?xml version="1.0" encoding="UTF-8" standalone="no"?>
<!DOCTYPE svg PUBLIC "-//W3C//DTD SVG 20010904//EN" "http://www.w3.org/TR/2001/REC-SVG-20010904/DTD/svg10.dtd">
<svg version="1.0" xmlns="http://www.w3.org/2000/svg" width="553.000000pt" height="562.000000pt" viewBox="0 0 553.000000 562.000000" preserveAspectRatio="xMidYMid meet">

<g transform="translate(0.000000,562.000000) scale(0.100000,-0.100000)" fill="#000000" stroke="none">
<path d="M2525 5564 c-16 -2 -66 -9 -110 -14 -852 -111 -1613 -634 -2043 -1405 -191 -342 -302 -713 -332 -1105 -51 -684 108 -1272 494 -1820 554 -787 1411 -1224 2326 -1186 449 19 881 140 1247 350 l62 35 50 -39 c28 -22 53 -40 55 -40 3 0 -6 31 -19 69 l-23 69 83 56 c356 242 720 679 929 1116 123 258 210 557 236 815 14 140 14 541 0 665 -36 324 -111 586 -249 875 -324 676 -917 1208 -1596 1430 -310 102 -464 127 -810 130 -148 2 -283 1 -300 -1z m550 -420 c597 -73 1141 -404 1561 -949 109 -141 243 -414 322 -655 74 -226 103 -416 109 -713 6 -264 -5 -363 -67 -617 -45 -182 -98 -310 -207 -505 -148 -263 -308 -457 -525 -639 -105 -87 -117 -100 -113 -124 22 -120 65 -408 65 -428 0 -15 -6 -24 -15 -24 -8 0 -15 4 -15 8 0 5 -33 42 -72 83 -40 42 -94 102 -120 135 -26 32 -119 149 -206 259 -87 110 -381 479 -653 820 -272 341 -555 697 -629 790 -74 94 -218 276 -320 405 -103 129 -249 316 -325 415 -193 250 -558 707 -577 723 -14 11 -21 6 -53 -30 -121 -141 -281 -431 -346 -629 -66 -202 -108 -491 -109 -749 0 -263 63 -520 197 -800 89 -185 219 -367 378 -526 340 -341 700 -535 1123 -604 173 -28 443 -28 610 0 146 25 380 91 440 125 54 30 64 31 79 6 17 -27 155 -184 170 -194 19 -12 16 -57 -3 -57 -9 0 -33 -8 -53 -19 -20 -10 -101 -39 -181 -64 -346 -109 -481 -131 -805 -129 -230 1 -273 4 -486 41 -73 12 -309 91 -381 127 -316 158 -527 314 -761 562 -289 307 -450 588 -572 997 -74 250 -78 274 -79 565 0 295 12 418 63 632 55 230 182 532 305 723 122 189 304 393 479 538 l100 82 -6 105 c-3 58 -10 117 -16 133 -12 31 0 36 20 8 8 -10 93 -112 189 -227 287 -343 1385 -1722 1656 -2079 37 -49 129 -169 204 -265 180 -232 445 -574 610 -788 74 -95 137 -171 141 -170 11 4 176 194 218 252 91 125 161 270 237 491 53 153 62 197 80 380 18 184 15 471 -6 575 -6 30 -16 80 -22 110 -14 70 -102 335 -140 420 -43 96 -169 305 -233 385 -226 285 -546 522 -875 648 -443 170 -895 179 -1353 26 -81 -27 -151 -49 -155 -49 -4 0 -56 55 -116 121 -100 111 -108 123 -92 135 40 29 271 115 397 148 310 82 603 100 934 60z m1003 -2153 c2 -948 0 -1082 -12 -1071 -8 6 -64 78 -124 158 -60 81 -203 273 -318 427 -115 154 -221 297 -236 319 l-28 39 0 609 0 608 358 -2 357 -3 3 -1084z m-2260 234 l353 -440 -3 -637 c-2 -350 -7 -640 -11 -644 -4 -4 -167 -10 -362 -12 l-355 -5 0 1093 c0 861 3 1091 13 1088 6 -2 171 -202 365 -443z"/>
</g>
</svg>